<svg width="640" height="360" viewBox="0 0 640 360" xmlns="http://www.w3.org/2000/svg" font-family="'Segoe UI', Arial, sans-serif">
  <rect width="640" height="360" fill="#0f172a" rx="16"/>
  <text x="320" y="40" text-anchor="middle" fill="#f8fafc" font-size="20" font-weight="bold">Multi-Tenant SaaS Architecture</text>

  <rect x="40" y="80" width="180" height="90" rx="12" fill="#1d4ed8" opacity="0.85"/>
  <text x="130" y="110" text-anchor="middle" fill="#e2e8f0" font-size="14" font-weight="600">Client Layer</text>
  <text x="130" y="135" text-anchor="middle" fill="#bfdbfe" font-size="12">React 18 · Vite 5</text>
  <text x="130" y="155" text-anchor="middle" fill="#bfdbfe" font-size="12">React Query · Tailwind</text>

  <rect x="230" y="80" width="180" height="90" rx="12" fill="#0ea5e9" opacity="0.9"/>
  <text x="320" y="105" text-anchor="middle" fill="#e0f2fe" font-size="14" font-weight="600">API Gateway</text>
  <text x="320" y="130" text-anchor="middle" fill="#bae6fd" font-size="12">Express 4</text>
  <text x="320" y="150" text-anchor="middle" fill="#bae6fd" font-size="12">JWT Auth · RBAC</text>

  <rect x="420" y="80" width="180" height="90" rx="12" fill="#16a34a" opacity="0.9"/>
  <text x="510" y="105" text-anchor="middle" fill="#dcfce7" font-size="14" font-weight="600">Data Layer</text>
  <text x="510" y="130" text-anchor="middle" fill="#bbf7d0" font-size="12">PostgreSQL 15</text>
  <text x="510" y="150" text-anchor="middle" fill="#bbf7d0" font-size="12">Prisma ORM</text>

  <rect x="150" y="210" width="340" height="110" rx="16" fill="#334155" opacity="0.85"/>
  <text x="320" y="235" text-anchor="middle" fill="#f8fafc" font-size="14" font-weight="600">Container Orchestration</text>
  <text x="320" y="258" text-anchor="middle" fill="#cbd5f5" font-size="12">Docker Compose · Health checks · Seed automation</text>
  <text x="320" y="280" text-anchor="middle" fill="#cbd5f5" font-size="12">Services: frontend · backend · database</text>

  <defs>
    <marker id="arrow" markerWidth="10" markerHeight="10" refX="6" refY="3" orient="auto" markerUnits="strokeWidth">
      <path d="M0,0 L0,6 L9,3 z" fill="#94a3b8" />
    </marker>
  </defs>

  <line x1="220" y1="125" x2="230" y2="125" stroke="#94a3b8" stroke-width="2" marker-end="url(#arrow)"/>
  <line x1="410" y1="125" x2="420" y2="125" stroke="#94a3b8" stroke-width="2" marker-end="url(#arrow)"/>
  <line x1="150" y1="255" x2="230" y2="170" stroke="#94a3b8" stroke-width="2" marker-end="url(#arrow)"/>
  <line x1="490" y1="170" x2="490" y2="210" stroke="#94a3b8" stroke-width="2" marker-end="url(#arrow)"/>
  <line x1="320" y1="170" x2="320" y2="210" stroke="#94a3b8" stroke-width="2" marker-end="url(#arrow)"/>
  <line x1="190" y1="170" x2="190" y2="210" stroke="#94a3b8" stroke-width="2" marker-end="url(#arrow)"/>
</svg>
